<?xml version="1.0" encoding="UTF-8"?>
<svg version="1.1" viewBox="0 0 872 924" width="1280" height="1280" xmlns="http://www.w3.org/2000/svg">
<path transform="translate(0)" d="m0 0h872v924h-872z" fill="#010000"/>
<path transform="translate(0)" d="m0 0h872v924h-872zm109 89-16 2-10 3-12 7-12 10-7 10-5 12-4 18v64l1 10 3 33 2 12 2 20 3 12 3 14 6 18 6 15 4 13 2 11 2 5-3 1-2 8 2 3h-4l-1 4h-1l-2 6v6l-2 3v6l2 2-4 1v10l-3 1v9l4 4-5-1v11 3l-1 4 1 4-1 4-1 7-2 4 2 5v18l2 7 2 1-2 1 1 6-1 5 1 5 2 1 1 7 3 15 3 9h2l-1 7 1 2h2l1 5 2 4v7l3 5 4 1-1 4 3 5 6 11 2 5 5 8 4 3 6 12 4 5 4 6 6 10 4 5 5 7 3 2 3 9 6 4h3l1 3 4 1 2 4h2l1 4 2 3 7 3 4 2 1 4 6 2 8 7 15 9 1 2 5 3h2l1 5 7 1 7 3 10 5 1 2h4v2l8 4 1-2 5 1 3 7 4 1 4-1v4h2v-2l3 1 5 5 2-3 4 2 2 2 3-1 8 3 2 2h4l1 3 3 1-2-5-3-3h3v2l5 3h2l2 4 2 2-1-6 2-1 1 3 4 1 4-1 2 4 2-4 3 2h3l1 4 3-2v-2h2v3l4 2 5-1 1 6 2-3v-2l6 1 3 2 2 3 1-4h5l2 2h3v-2l8 1v3h4l1-3 2-1v5l3 2 1-6h3l2 4h10l1 2 4-2v-2l2 1h6l1 4h3l1-4 11 2 4 1v-2h9l7 1v-2h13 4 8v-2l19-2h7l3-1h4l4-1v-2l4 1 5-2 2 1-1-3 6-1v-2h2l1 4 1-3-1-3 7 4v-2h4l1 2 2-1 1-2 3 1 2-6h3l1 5 3-2h4v-3l4 1 5-2 3-2 18-6 1-2h2v2l3-1 4-5 8-3 9-5 6-4 11-4 6-3v2h2l1-5-1-2 4 2 1-3h3l2-3 5-2 6-4v-2l6-1 4-4 3-1 1-2 3-1v-2l5-2 3-4 4-1 1-2 4-2v-3h3l5-5v-2l5-2 5-5 5-10 5-5 7-12 6-8 2-5h2l4-7 4-8 10-14 3-5 2-5 8-16 6-16 3-10 5-15v-6l2-6 3-13v-8h-2l4-8v-10l-1-2 2-10 2-9-2-2 1-5-1-3 1-4-2-2h2l-1-9-1-5-4 2 3-4v-10h-3l2-4-3-6-2-3 4-2-3-6-4-13 2-1-3-5-1-5h-2l-1-5-4-13v-7l4-15 5-11 5-14 5-23 4-27 3-25 3-47-1-45-4-20-7-14-10-11-12-9-15-6-4-1h-22l-13 4-14 6-6 3-6 2-8 3-4 1-3 1v2h-2l-4 4-8 4-7 3-5 1-7 3-7 7-6 4-17 13-14 10-13 10-10 7-6 3v-2l-3 1-2-1-1-3-7-1-2 1v2l-9-3-2-7-1 2-2 1 3 3-2 1v-2l-7-2-4 1 4 1v2l-9-1v-4l-2-2-16-3-1-2-9 1h-2l-1-2-5 2h-2v-2l-7 1-7-2-2 1v-3h-2v3l-5-4-1 3-8-2-4 1-4-5-2 4-7-1h-2l-4-2-6 2h-7l-1-2h-3v2l-8 1-4-1h-3l-5 1-3-1-1 3h-2l-2-2-2 1v2l-6-2v2l-7-1-1 1h-15l-3 1v2l-5-2v3l-5-3v3h-9l-5 3v3l-1-5-4 1-3 3h3v2l-4-1-2 2v-3l-3 1v2h-2v-2l-5-1-4 4h-5l-1 3h-2l-1-3-4 1v2l-7 1-1-2-1 4-4 1v-2l-4-1-3 1-14-10-11-9-13-9-16-12-14-11-5-4-10-3-8-3-8-4-4-4-8-4-12-4-23-10-13-4z" fill="#FCFCFC"/>
<path transform="translate(514,228)" d="m0 0 9 2 2 2v-2l4 1v3l2-3 6 2h2v2l6 1v-2l3-1 1 5h3l2-1 1 2 9 3 4 1v2l11 3 4 2h2v3l5-1 1 2 12 3v3h3l1 2 4 1 4 4v2l3-1 1-3 3 1-1 5 5 2 8 5 1 5v-2l4 2 6 8 5 1 4 8 3-3 5 8 6 3 4 5 2 5 5 3 1 3h2l5 7v2l5 2 6 10 9 18 3 4 2 5 1 1v6l5 1 2 4-3-1 1 3 3 1 2 6-1 1 2 1 2 9-1 3h2l2 10 4 9 1 3-3-1-1 3 4 1v5l1 1v8l1 3h2l-1 6 2 4-1 5 1 7-2 4 1 4-1 6h-2l2 4-1 2h2l-4 16v4l1 4-3-1v3h2l-1 7-3 7h-2v6 3l-1 5-2 1h-1l-2 4 2 4-4 1v6l-4 8-3 5-3 7-4 10-3 1-2 6-2 5h-2l-2 6-4 7-5 4-4 6-4 1-2 4-8 10-16 14-5 5-5 1-1 5-5 3-5 5-9 7-3 4-4-1-3 1v2l-16 8-20 9-17 7-6 2-8 2-5 2v-2h-2l-1 4-9 2-5 2v-6h-2l-2 5-5 3-9 2-11 1h-4l-2 1h-6v2l-6-2-5 3-5-1-3-3-1 4-2 1h-6l-2-2-4 2-4-4-3 5-3-1-1-3-3 4-2-1-9-4v2l-4-1v3h-5l-2 1v-5l-2 3-5-2v3l-4 1-1-5h-2l-2 4-2 1-6-4-2 3h-4v-2l-4-1-3-2v2l-3 1h-3l-6-2-21-3-9-4-3-3-3 1-1 3-5-3-6-1-1-3-5 1-1-2-12-3-11-3-12-6-5-2-11-4-2-2-8-3-10-7-6-3-7-6-5-3-1-3-5-2-5-6-5-2-4-7-6-2-4-5v-2l-4-1-5-4-2-7-6-2-2-4-5-5v-2h-4v-3l-4-1 1-6-4-2v-3l-4-1-1-3-1 3-3-1 1-6h2v-3h-5l-3 1-3-7h2l2 3 3 1-3-9-6-14-1-3 3-7 7-8 15-15h2l1-3 8-7 7-7 11-9 6-4h11l7 3 31 1 16-3 6-1 1 2v11l2 7h7l1-22 2-3 19-9 11-8 13-10 5-6h2l2-4 10-12 7-11 11-21 9-25 3-19 1-10 1-5-2-2v-10l9-9 13-9 11-9 13-10 12-9 12-11 19-14 12-9 11-9 6-5 7-8 12-11 5-5z" fill="#FCFCFC"/>
<path transform="translate(70,853)" d="m0 0h581l221 1v70h-872v-70z" fill="#0F0E20"/>
<path transform="translate(398,217)" d="m0 0 3 1 1 2 9 1v-3l3 1-1 3h2v-4l3 1v2h6l2-1 6 2 1-4 3 1v2l4-2h3v2l4 1 2-4 2 1v3l4-3h4v2l5-1 1 4-4 4-14 10-11 7-11 8h-2v2l-6 5h-2v2l-11 9-20 18-11 9-9 7-12 9h-4l-13-5-9-3-35 1h-7l-12 3-1 2h-3l-3-5v5l2 1-5 3-19 10-12 9-11 9-5 6h-2l-2 4-7 8-10 14-10 19-10 26-4 16-2 15v16h-8l2 3 4-2 3 3-1 5-7 8-8 7-8 8-5 4-1 2h-2l-2 4-5 4-4 5-6 4-3 1 1-10-2-6 1-3-2-7 1-3h-2l1-5-1-3v-11l2-3-2-3 2-7-2-6 3-2v-7l3-5-3-1 2-3 2-6 2-5-1-1-3 5-2-1 6-13 4-14 2-1v-6l4-2-1-6 3-4 2-5 3-7 2-5 3-7 2-2 2-7 5-5 3-4h2l1-6 3-3h3l2-5 3-1 1-5 6-4 2-4h2l2-5h2l1-3 3-1 1-2 4-2 5-5 3-1v-3l11-7-1-2 5-2 3-4 3-3 11-6 11-8 13-6h2v-2l7-1 2-3h4l10-5 5-2 2 1 1-3 3-1v2l5-3 1-2 5 2 3-4h3v2h2l3-4 7 1 2-4 3 1 1 3 2-3h3l1-3h6l4-2h11l1-2h11l2-3h2v2h10l1-4h2v3l9-1z" fill="#FCFCFC"/>
<path transform="translate(459,496)" d="m0 0 8 1 6 3 2 2-1 7-8 11-12 16-9 15-1 4 4 8 14 9 9 3 5 1h10l17-3 8-4 7-8 4-6 9-6 4-2h6l8 7 2 4v13l-5 9-9 9-13 8-13 6-11 3-16 1-17-3-15-6-11-6-8-7-4 1-8 7-12 6-14 5-5 1h-22l-15-4-12-5-14-10-9-8-4-9v-10l3-7 6-5 6-1 10 4 5 5 4 5 7 8 8 4 7 2h24l13-5 9-6 5-7v-6l-9-15-8-12-7-9-4-4 1-9 3-4 6 1h13z" fill="#010000"/>
<path transform="translate(111,161)" d="m0 0 11 2 12 3 15 7 14 7 19 12 11 8 12 9 4 5-1 4-6 2-2 5-3 1-1-3-1 2h-2l-2 6-9 2v2l-5 4-4 4-5 1-1 3-11 7-5 5-5 3-2 4-5 4-9 13-4 6-4 8-7 9-4 2v3l-5 2-1-1 1-26-2-29-1-37v-10l2-8 3-29 2-11z" fill="#FCFCFC"/>
<path transform="translate(734,162)" d="m0 0h6l3 18 4 35v17l-2 49-1 10v20l-2-2-4-10-4-6v-3h-2l-4-4v-3l-5-2 1-4h-2l-2-5-3-3v-2l-4 1-1-5-6-3v-2l-5-2-1-5-6-1-2-4-4-1v-3h-2l-1-4-2 4-5-5-1-2-4-1-1-3-9-2 1-2h2l-10-5-3-3h-4l-2-6-2-1 1-4 12-8 13-9 13-8 18-10 13-5 6-3z" fill="#FDFDFD"/>
<path transform="translate(547,342)" d="m0 0h15l12 3 12 7 11 10 6 9 5 16 2 9 10 16 1 10-5 10-7 6-9 2-7-3-8-6-8-17-1-8-3-12-4-7-5-3-4-1h-8l-12 6-10 11-7 9-5 15-8 11-11 4-9-3-4-6-1-4v-12l4-11 10-22 10-14 11-11 15-10 6-3z" fill="#010000"/>
<path transform="translate(169,878)" d="m0 0h2l3 9 1-3 9-1-4 4-4 1 4 7 2 2v4l-5-2-3-4-4 6h-10l-4-2-2-5-5 6-7 1-4-2-2-5v-8l4-3h8l5 5h2l5-5 7 1z" fill="#FDFDFD"/>
<path transform="translate(73,879)" d="m0 0 4 1 3 9 7-6 4-1 5 3 3 4v3h2l-1-6 1-2 4 1-2 9v6l-2-1-1-3-4 2-4 3-6-1-3-3-5-8z" fill="#FDFDFD"/>
<path transform="translate(49,881)" d="m0 0 5 4 3 5 5-5 3-2h5l5 5 3 6 1 1v5l-3 1v-6h-2l-2 5-1 1h-6l-4-2-4-6-5-3z" fill="#FDFDFD"/>
<path transform="translate(185,231)" d="m0 0 3 1-2 2-2 3h-3l-2 4h-3l1 2-6 1-1 4-11 6-6 6h-2l-1 3h-3l-1 4h-2l-1 5-4 1v2h-2l1 3-4 4-1 2h-2l-2 4-2 2v4l-3 2-1 3h-2l-1 4h-2v3l-3 3-2 4-4 4h-4l-1-9 2 4 5-1v-3h2l1-3 4-4 5-7 2-5 6-9 9-12 4-2 2-5 5-3 9-8 7-4 3-3 3-1 4-4h2l1-3h2v-2z" fill="#0F0E21"/>
<path transform="translate(114,878)" d="m0 0h7l4 3v2l-10-1-1 3 9 3 3 4-2 6-2 2-7 1-5-1-1-4h10v-4l-8-4-3-3 2-5z" fill="#FDFDFD"/>
<path transform="translate(27,878)" d="m0 0 3 3 3 13h2l3-6 2-2 1-7 2-1 1 6 3 1 1 11v3l4-2 3-4 1 3-3 5h-5l-4-4-1-10-2 1-3 11-5 1-4-9-2-9z" fill="#FDFDFD"/>
<path transform="translate(66,885)" d="m0 0 6 1 2 9-5 4-5-1-3-5 2-6z" fill="#030206"/>
<path transform="translate(87,885)" d="m0 0h5l5 6-1 4-6 4-4-2-3-4 2-5z" fill="#030206"/>
<path transform="translate(150,689)" d="m0 0 5 3 3 4h3v3l5 1 1 3 3-2v6l8 2 5 6 6 3 2-1 1 3 3 3-2 1-14-9-5-5-6-2v-3l-12-6-2-3v-3l-4-2z" fill="#0F0E21"/>
<path transform="translate(136,275)" d="m0 0 2 3-4 4-1 2h-2l-2 4-2 2v4l-3 2-1 3h-2l-1 4h-2v3l-3 3-2 4-4 4h-4l-1-9 2 4 5-1v-3h2l1-3 4-4 5-7 2-5 7-10z" fill="#0F0E21"/>
<path transform="translate(701,346)" d="m0 0 7 1 2 5-6-4 4 7v2l3 1v3l3-1 2 5h-7l-5-5-2-5-3-8z" fill="#3C3B48"/>
<path transform="translate(168,885)" d="m0 0 1 3-2 10-7-1-3-4 1-4 4-3z" fill="#040307"/>
<path transform="translate(154,341)" d="m0 0 1 2 2 1-6 8h-2l-1 7-3 3h-2l-1-2-3 6h-2l-1 2v-4l8-10v-4h2l1-2 4 1 1-4z" fill="#0E0D1F"/>
<path transform="translate(813,887)" d="m0 0h2l-2 9 2 1 1-9 3 1-1 7 4-1 1-4-1-4 4 1v6l-4 5h-11l-1-1v-7z" fill="#FDFDFD"/>
<path transform="translate(683,888)" d="m0 0h6l-1 7 3 1v-5l-1-3 4 1 1 4h2l1 4-2 2h-11l-1-1-1-7z" fill="#FDFDFD"/>
<path transform="translate(726,403)" d="m0 0h2l2 5 3 9v2l3 3v10l-6-1 1-4 2 1-3-5-2-6-1-10h-2z" fill="#0E0D20"/>
<path transform="translate(128,878)" d="m0 0 3 1 2 5v12l2 4-4 1-3-4-1-18z" fill="#FDFDFD"/>
<path transform="translate(112,641)" d="m0 0 3 1v2l3 1v5h2l3 3 1 4 4 4v2l2 1 2 4 3 2-3 1-5-5-6-8-4-7-6-9z" fill="#0E0D20"/>
<path transform="translate(688,245)" d="m0 0 4 1 2 3 6 2 1 5 5 2v2l4 1 3 2-1 7-2 1v-2h-2l1-4-1-4-5-1-3-2-1-3-2-1v-2l-6-2v-2h-2l-1 2-1-4z" fill="#0E0D1E"/>
<path transform="translate(142,886)" d="m0 0 5 1 2 2-1 6-4 3-3-1-1-2v-7z" fill="#040309"/>
<path transform="translate(707,587)" d="m0 0 3 1h-2l-1 5 6-5-1 4-5 6-3 5h-3l-2-4 4-7 2-1z" fill="#3D3D4A"/>
<path transform="translate(251,754)" d="m0 0h2l2 2 8 1 4 2h3v4l2 2-2 3-2-3-5-3v2h-2v-4l-6 1-2-1z" fill="#0F0E21"/>
<path transform="translate(91,610)" d="m0 0 3 1v3l3-1 1 5 3 3 5 9 2 5 6 1v2h-2l-1 3-6-7-5-10-5-5-3-5z" fill="#0F0E21"/>
<path transform="translate(126,880)" d="m0 0 2 1-1 8-3 1-10-5 1-4 10 1z" fill="#030205"/>
<path transform="translate(724,282)" d="m0 0 4 1 1 3 3 2v2h2l5 9v3l-6-3v-2l-2-1-1-5-2-2-4-5z" fill="#0F0E21"/>
<path transform="translate(739,890)" d="m0 0h3l1 6 3 1 1-7 4 1 1 6-2 2h-11z" fill="#FDFDFD"/>
<path transform="translate(72,881)" d="m0 0 3 1 5 8 2 7-1 2h-2l-2-5-4-7v-2l-4-2z" fill="#06050D"/>
<path transform="translate(653,889)" d="m0 0 2 1 1 7h3l1-4-1-4 4 1 1 8-3 1h-9l-1-3z" fill="#FDFDFD"/>
<path transform="translate(772,887)" d="m0 0 7 1 1 2-2 6 2 1-2 2h-6l2-4 1-5-4-1-1 3-1-4z" fill="#FDFDFD"/>
<path transform="translate(793,886)" d="m0 0h8l3 5-1 5-5 2-1-10z" fill="#080712"/>
<path transform="translate(832,887)" d="m0 0 4 2-1 1v9h-6v-9z" fill="#FDFDFD"/>
<path transform="translate(183,878)" d="m0 0 3 1 1 6h2l-1 3h-3l-5 2-1-2 4-4-5-1z" fill="#030206"/>
<path transform="translate(669,890)" d="m0 0h2v6l3 1 2-6h3v6l-3 2h-9l1-7z" fill="#FDFDFD"/>
<path transform="translate(174,708)" d="m0 0 4 1 5 6 6 3 2-1 1 3 3 3-2 1-14-9-5-5z" fill="#0E0D1F"/>
<path transform="translate(714,889)" d="m0 0h7l2 5v5h-8l2-3v-6z" fill="#FDFDFD"/>
<path transform="translate(347,164)" d="m0 0 3 3-5 3v2l-5 1v-4h-3l-1 4h-3l1-4 6-2h7z" fill="#1E1D2D"/>
<path transform="translate(233,742)" d="m0 0 3 3 4 5 7-1 3 3h-5l-1 2-8-4v-2h-4l-2-5z" fill="#201F31"/>
<path transform="translate(783,380)" d="m0 0 1 4h2l3 9 1 2h-2l-1 4v-4h-2l-3-6-1-6z" fill="#434351"/>
<path transform="translate(801,887)" d="m0 0 5 1 1 1v8l-3 3-5-1 4-4-1-6z" fill="#FDFDFD"/>
<path transform="translate(135,886)" d="m0 0h1l1 14-2 2-2-5-1-1v-9z" fill="#0B0A17"/>
<path transform="translate(839,887)" d="m0 0 6 1 1 3v7l-1 1h-5l2-4 1-4-4-2z" fill="#FDFDFD"/>
<path transform="translate(701,346)" d="m0 0 7 1 2 5-6-4 4 7v2l-4-2-1-3-3-1-1-4z" fill="#72727D"/>
<path transform="translate(794,887)" d="m0 0 4 1v8l-1 3-4-1v-10z" fill="#FDFDFD"/>
<path transform="translate(708,364)" d="m0 0h3l5 6-1 7 3 3-5-1-2-7-3-6z" fill="#131223"/>
<path transform="translate(185,231)" d="m0 0 3 1-2 2-2 3h-3l-2 4h-3l1 2-6 1v2l-3-1 2-2 3-1 4-4h2l1-3h2v-2z" fill="#0E0D20"/>
<path transform="translate(840,890)" d="m0 0 3 1-1 5-2 3-5-2 2-6z" fill="#040308"/>
<path transform="translate(134,672)" d="m0 0 1 3h2l2 3 4 1 2 6-4-1-5-3-2-4z" fill="#0F0E21"/>
<path transform="translate(633,888)" d="m0 0 4 1 2 10-5-1z" fill="#FDFDFD"/>
<path transform="translate(585,758)" d="m0 0 6 2-10 5-8 2 1-5 7 1 1-3z" fill="#0D0C1D"/>
<path transform="translate(744,888)" d="m0 0 4 2-1 7-2 1-3-2v-7z" fill="#07060E"/>
<path transform="translate(642,889)" d="m0 0 4 1 3 9h-6z" fill="#FDFDFD"/>
<path transform="translate(603,751)" d="m0 0 5 1-4 2-5 6h-2v-2h-2l-1 2-3-1 3-4 4 1z" fill="#0F0E21"/>
<path transform="translate(183,308)" d="m0 0h3v2h-2l-2 5h-2l-2 5-4 2v-4l5-5z" fill="#0E0D1F"/>
<path transform="translate(122,426)" d="m0 0 2 4-3 4-2 6-2 1v-3l-2-1h3v-3l-2-1 3-1 2-5z" fill="#0D0C1E"/>
<path transform="translate(704,258)" d="m0 0h2v2l4 1 3 2-1 7-2 1v-2h-2l1-4-1-4-4-1z" fill="#2B2A3B"/>
<path transform="translate(47,883)" d="m0 0h3l1 2v8l-3 2-2-11z" fill="#07060F"/>
<path transform="translate(74,388)" d="m0 0 2 1-1 2h-2l-1 6-3 1-1 7h-2v-5l2-6h2v-4h4z" fill="#0F0E21"/>
<path transform="translate(91,610)" d="m0 0 3 1v3l3-1 1 5 3 3 2 5-6-4-5-8z" fill="#0E0D20"/>
<path transform="translate(146,354)" d="m0 0 1 3-1 2-4 1-3 6h-2l-1 2v-4l4-5 4-4 2 1z" fill="#0C0B1A"/>
<path transform="translate(777,363)" d="m0 0 2 3 4 13v2h-3l-2-8-2-4v-1z" fill="#0E0D1F"/>
<path transform="translate(91,881)" d="m0 0 6 1 1 2h3v8h-2l-4-7-4-2z" fill="#050409"/>
<path transform="translate(3,854)" d="m0 0h7l1 5-3 1-5-2z" fill="#010000"/>
<path transform="translate(278,705)" d="m0 0 15 5 3 2-1 1h-5l-2-2-7-2-3-2z" fill="#151426"/>
<path transform="translate(51,887)" d="m0 0 2 3v7l-2 2h-3l-1-5 3-1z" fill="#0D0C1D"/>
<path transform="translate(59,516)" d="m0 0h2l2 10v8l-2-3v-4l-2-1-1-7z" fill="#0D0C1E"/>
<path transform="translate(797,441)" d="m0 0 2 1v10l1 3h-2l-3-4 1-6v-3z" fill="#0E0D20"/>
<path transform="translate(826,887)" d="m0 0 2 1 1 3v8h-2v-2h-3z" fill="#030205"/>
<path transform="translate(732,890)" d="m0 0h2l1 7 1 2h-6l1-8z" fill="#FDFDFD"/>
<path transform="translate(196,723)" d="m0 0 1 2h3v2l5 2 3 4 1 4h-2l-1-5-4-2-3-1-5-5z" fill="#0F0E21"/>
<path transform="translate(555,711)" d="m0 0 2 1v2l-7 1-1 3h-4l1-4z" fill="#403F4E"/>
<path transform="translate(797,469)" d="m0 0 4 2-2 9-1 8h-2l1-17z" fill="#0F0E21"/>
<path transform="translate(159,890)" d="m0 0h5l3 2-1 3-3 1-5-2z" fill="#0F0E21"/>
<path transform="translate(534,172)" d="m0 0 7 1 4 2-2 4-1-1-7-1 3-1v-2z" fill="#1A1927"/>
<path transform="translate(302,714)" d="m0 0h6l1 3 5-2 1 2-2 1h-9l-2-2z" fill="#42414F"/>
<path transform="translate(633,671)" d="m0 0v3l-8 8-4 2 1-4 10-8z" fill="#0B0A17"/>
<path transform="translate(679,321)" d="m0 0 4 2 6 6v3h2v2l-4-1-4-6-1-3h-2z" fill="#0F0E21"/>
<path transform="translate(650,292)" d="m0 0 4 1 3 2-2 6-4-4z" fill="#0D0C1C"/>
<path transform="translate(714,267)" d="m0 0h3l5 6v4h2l-1 3-4-5 1-2-3-1-1-2-3-2z" fill="#0F0E21"/>
<path transform="translate(648,890)" d="m0 0 4 2-1 6h-3l-1-7z" fill="#07060F"/>
<path transform="translate(821,888)" d="m0 0 3 3-2 5-2 1-2-1 1-6h2z" fill="#050409"/>
<path transform="translate(226,678)" d="m0 0 4 2 5 3 5 4-4 1v-2l-6-2z" fill="#0F0E21"/>
<path transform="translate(113,480)" d="m0 0 2 4v5l1 2-2 4h-3v-3l2-2-1-6z" fill="#0E0D1F"/>
<path transform="translate(685,237)" d="m0 0h1v5h2v3l-4 1-4-4 3-1z" fill="#0E0D1F"/>
<path transform="translate(115,892)" d="m0 0h5v4l-1 1h-6l-1-3 3-1z" fill="#020104"/>
<path transform="translate(357,781)" d="m0 0h2v3l4 1h-4l-1 4-5-5-3-2 7 1z" fill="#454452"/>
<path transform="translate(730,517)" d="m0 0h2v5l-5 7-1-2z" fill="#0E0D1E"/>
<path transform="translate(60,428)" d="m0 0 2 1 1 9-2 1-2-1v-9z" fill="#161527"/>
<path transform="translate(131,390)" d="m0 0 2 3v2l-3 2v6l-3 1v-6z" fill="#0E0D1E"/>
<path transform="translate(558,176)" d="m0 0h7l2 1-1 5h-3l-5-5z" fill="#161526"/>
<path transform="translate(624,741)" d="m0 0 3 1-11 7h-3l1-3 4-1 4-3z" fill="#0E0D1E"/>
<path transform="translate(680,626)" d="m0 0 2 1-3 9-4-5z" fill="#686772"/>
<path transform="translate(723,391)" d="m0 0h2l1 6 2 2-2 4-2-2-1-6h-2v-2h2z" fill="#0F0E21"/>
<path transform="translate(716,382)" d="m0 0 7 2v7l-2-4-4-1z" fill="#0F0E21"/>
<path transform="translate(785,894)" d="m0 0 4 1-1 4-4 1-2-1 2-4z" fill="#FDFDFD"/>
<path transform="translate(757,890)" d="m0 0 3 1-1 6h2l-1 2-4-1v-7z" fill="#FDFDFD"/>
<path transform="translate(688,890)" d="m0 0 4 1v5l-2 1-3-2z" fill="#0A0916"/>
<path transform="translate(64,543)" d="m0 0 3 1 1 8 2 2v4h-2l-3-9z" fill="#0E0D1F"/>
<path transform="translate(164,328)" d="m0 0h5l-3 6-4 1-1-4z" fill="#0E0D1F"/>
<path transform="translate(203,291)" d="m0 0 2 2h-2v3l-5 4h-2v-2l2-2v-3z" fill="#0F0E21"/>
<path transform="translate(522,169)" d="m0 0 7 1-3 4-7-1 3-1z" fill="#2E2D3A"/>
<path transform="translate(337,777)" d="m0 0 6 1v3l-4 2-4-2v-2h2z" fill="#151423"/>
<path transform="translate(330,775)" d="m0 0 5 2-2 1-2 4-2-1v-3l-4-1 2-1z" fill="#0D0C1D"/>
<path transform="translate(112,641)" d="m0 0 3 1v2l3 1v5l-5-4-2-4z" fill="#0D0C1D"/>
<path transform="translate(137,587)" d="m0 0h2l2 3 3 1 1-3 2 5-7 1z" fill="#81818A"/>
<path transform="translate(737,451)" d="m0 0 4 5 1 2h-2l1 4h-3l-1-3h2l-3-4z" fill="#171629"/>
<path transform="translate(173,894)" d="m0 0 5 5 1 2-5 1-1-2-1-4z" fill="#020102"/>
<path transform="translate(702,890)" d="m0 0h2l1 9h-4z" fill="#FDFDFD"/>
<path transform="translate(72,881)" d="m0 0 3 1 1 6-3-1v-2l-4-2z" fill="#05040A"/>
<path transform="translate(705,596)" d="m0 0h2l-2 6-4 1 1-5z" fill="#FDFDFD"/>
<path transform="translate(70,558)" d="m0 0 2 1v2l3 1-3 5h-2l-1-6z" fill="#333242"/>
<path transform="translate(162,467)" d="m0 0 7 2-1 3-3-2-4 2-1-4z" fill="#0E0D1F"/>
<path transform="translate(383,161)" d="m0 0 4 3-6 2-5-1v-3l7 1z" fill="#0E0D1F"/>
</svg>
